HIERARCHY
ROOT Hips
{
	OFFSET 0.000000 0.000000 0.000000
	CHANNELS 6 Xposition Yposition Zposition Zrotation Yrotation Xrotation 
	JOINT LHipJoint
	{
		OFFSET 0.000000 0.000000 0.000000
		CHANNELS 3 Zrotation Yrotation Xrotation
		JOINT LeftUpLeg
		{
			OFFSET 1.363060 -1.794630 0.839290
			CHANNELS 3 Zrotation Yrotation Xrotation
			JOINT LeftLeg
			{
				OFFSET 2.448110 -6.726130 0.000000
				CHANNELS 3 Zrotation Yrotation Xrotation
				JOINT LeftFoot
				{
					OFFSET 2.562200 -7.039590 0.000000
					CHANNELS 3 Zrotation Yrotation Xrotation
					JOINT LeftToeBase
					{
						OFFSET 0.157640 -0.433110 2.322550
						CHANNELS 3 Zrotation Yrotation Xrotation
						End Site
						{
							OFFSET 0.000000 0.000000 0.000000
						}
					}
				}
			}
		}
	}
	JOINT RHipJoint
	{
		OFFSET 0.000000 0.000000 0.000000
		CHANNELS 3 Zrotation Yrotation Xrotation
		JOINT RightUpLeg
		{
			OFFSET -1.305520 -1.794630 0.839290
			CHANNELS 3 Zrotation Yrotation Xrotation
			JOINT RightLeg
			{
				OFFSET -2.542530 -6.985550 0.000000
				CHANNELS 3 Zrotation Yrotation Xrotation
				JOINT RightFoot
				{
					OFFSET -2.568260 -7.056230 0.000000
					CHANNELS 3 Zrotation Yrotation Xrotation
					JOINT RightToeBase
					{
						OFFSET -0.164730 -0.452590 2.363150
						CHANNELS 3 Zrotation Yrotation Xrotation
						End Site
						{
							OFFSET 0.000000 0.000000 0.000000
						}
					}
				}
			}
		}
	}
}
MOTION
Frames: 16
Frame Time: 0.008333
4.235997 16.994779 -2.217376 108.381560 -78.533793 -109.100457 -2.580495 -6.282338 2.779091 1.674084 -4.938988 -107.820456 -4.613949 -3.637084 -9.976284 -0.077478 1.886815 6.236639 1.468400 -0.000000 -42.229300 12.628581 3.785747 -8.490056 -0.917181 -1.298262 -2.136592 0.812206 -2.868493 26.786817 -2.147281 -8.265685 -14.017501 0.655000 0.000000 -45.833300
4.248822 16.981538 -2.196339 110.598248 -78.540545 -111.267669 -2.785512 -6.327080 2.793957 1.600931 -4.695455 -107.417405 -4.468024 -3.443367 -8.921532 0.137631 3.030129 6.319564 1.797900 0.000000 -43.367100 12.497679 3.684871 -8.390901 -0.665652 -1.206231 -2.643029 0.872380 -2.888503 27.233882 -2.073370 -7.892073 -14.109900 0.655899 0.000000 -46.217300
4.261690 16.968107 -2.175054 112.687408 -78.583739 -113.311099 -3.038934 -6.352510 2.794071 1.557115 -4.525250 -107.057438 -4.296701 -3.110967 -7.198064 0.363857 4.360579 7.137039 2.259000 -0.000001 -45.009100 12.360010 3.576389 -8.287645 -0.361532 -1.120996 -3.134239 0.930820 -2.902583 27.654812 -2.009073 -7.565800 -14.189758 0.656000 0.000000 -46.600000
4.274898 16.955043 -2.154854 114.627989 -78.647334 -115.259154 -3.315631 -6.364659 2.733583 1.354052 -4.444465 -106.666518 -4.123787 -2.664096 -4.937171 0.548509 5.571534 8.666662 2.789100 -0.000000 -46.712001 12.220826 3.460947 -8.182412 -0.026155 -1.041331 -3.529637 0.984967 -2.910758 28.009623 -1.955343 -7.293128 -14.245579 0.654200 0.000000 -46.961000
4.288639 16.942863 -2.136827 116.381763 -78.716480 -117.104550 -3.591179 -6.377657 2.593339 1.006620 -4.399249 -106.089353 -3.933502 -2.152738 -2.414906 0.677794 6.550377 10.802193 3.344200 0.000000 -47.887800 12.083402 3.342274 -8.080678 0.319281 -0.972220 -3.773332 1.032889 -2.913161 28.267658 -1.912081 -7.074876 -14.269456 0.649800 0.000000 -47.283700
4.302829 16.932251 -2.121639 117.881233 -78.784493 -118.781724 -3.844947 -6.402322 2.381778 0.635330 -4.334738 -105.166708 -3.705934 -1.642628 0.045079 0.762263 7.289703 13.345289 3.880900 0.000000 -48.130600 11.950762 3.225503 -7.988189 0.654119 -0.928535 -3.848854 1.073419 -2.909435 28.411395 -1.878096 -6.906151 -14.257241 0.642300 0.000000 -47.560500
4.317221 16.923753 -2.109528 119.051144 -78.858306 -120.199183 -4.065268 -6.439150 2.121663 0.324313 -4.247863 -103.829432 -3.448699 -1.187920 2.214642 0.811163 7.765186 16.027354 4.331000 -0.000000 -47.454700 11.825797 3.114046 -7.907499 0.965488 -0.927805 -3.774537 1.106865 -2.898781 28.435471 -1.851782 -6.779318 -14.210412 0.631800 -0.000001 -47.771599
4.331164 16.918030 -2.100148 119.849445 -78.955549 -121.280254 -4.252493 -6.481813 1.844107 0.125264 -4.173858 -102.090804 -3.182892 -0.818927 3.975622 0.833365 7.974549 18.590045 4.638900 -0.000000 -46.231900 11.709149 3.008009 -7.837519 1.252127 -0.981370 -3.590369 1.134562 -2.880080 28.340503 -1.832141 -6.690099 -14.128932 0.618200 -0.000001 -47.921600
4.344065 16.915423 -2.093177 120.247738 -79.092198 -121.961673 -4.413548 -6.520781 1.578168 0.052931 -4.163169 -100.025733 -2.930545 -0.540325 5.316981 0.836199 7.947189 20.839701 4.782000 -0.000000 -44.992700 11.602271 2.906123 -7.773724 1.518426 -1.092975 -3.345936 1.157927 -2.852387 28.133859 -1.818370 -6.635029 -14.014908 0.601800 -0.000000 -48.007000
4.355081 16.916254 -2.087833 120.279842 -79.280814 -122.246945 -4.559958 -6.545518 1.342844 0.063707 -4.259042 -97.758487 -2.710793 -0.334952 6.338753 0.819956 7.697396 22.636326 4.748101 -0.000000 -44.086500 11.503886 2.804388 -7.708141 1.775221 -1.254003 -3.084538 1.178864 -2.814830 27.825010 -1.810112 -6.612211 -13.872085 0.582800 -0.000000 -48.022700
4.363580 16.920577 -2.083506 119.985546 -79.522311 -122.154066 -4.700157 -6.549279 1.151648 0.133968 -4.479447 -95.390321 -2.527164 -0.184156 7.141726 0.790886 7.299354 23.936893 4.576300 0.000001 -43.712300 11.414177 2.700361 -7.633067 2.027985 -1.451474 -2.842608 1.198225 -2.767176 27.426772 -1.806657 -6.618372 -13.702491 0.561500 0.000000 -47.979600
4.369109 16.928325 -2.079652 119.418408 -79.806944 -121.724742 -4.838842 -6.528747 1.011294 0.249764 -4.822236 -92.992586 -2.373665 -0.071907 7.811565 0.758633 6.857138 24.785942 4.336800 0.000000 -44.060400 11.334479 2.593112 -7.541962 2.275835 -1.670070 -2.645031 1.216217 -2.709884 26.954459 -1.806680 -6.646729 -13.509091 0.537500 0.000000 -47.889900
4.371143 16.939240 -2.075747 118.675058 -80.117436 -121.056180 -4.979308 -6.481776 0.916330 0.356399 -5.262156 -90.631696 -2.246599 0.019915 8.463990 0.725944 6.414355 25.230540 4.066300 0.000000 -44.972400 11.264008 2.481394 -7.428507 2.520847 -1.886239 -2.497354 1.232747 -2.643687 26.420405 -1.809456 -6.693388 -13.293475 0.510801 0.000000 -47.770299
4.369384 16.952887 -2.071323 117.859518 -80.432631 -120.260319 -5.123312 -6.409672 0.858246 0.422727 -5.762355 -88.334542 -2.136786 0.102788 9.169898 0.699953 6.032682 25.371807 3.812800 0.000000 -46.335900 11.202011 2.365470 -7.289232 2.760620 -2.079322 -2.395576 1.247452 -2.569907 25.837571 -1.813882 -6.752220 -13.058082 0.481100 0.000000 -47.638001
4.363682 16.968702 -2.066027 117.091455 -80.733124 -119.470801 -5.273225 -6.315663 0.824529 0.415666 -6.278807 -86.111806 -2.035875 0.185790 9.985788 0.686208 5.748980 25.312990 3.605500 0.000000 -47.929500 11.146019 2.245630 -7.122880 2.993851 -2.230976 -2.326496 1.260176 -2.490119 25.216774 -1.819111 -6.818284 -12.805129 0.448400 -0.000000 -47.507201
4.353991 16.986103 -2.059545 116.475096 -81.003730 -118.805527 -5.431221 -6.204627 0.804846 0.332068 -6.775372 -83.948417 -1.934009 0.272397 10.925338 0.692174 5.609448 25.164227 3.475800 -0.000000 -49.503300 11.093476 2.122797 -6.931106 3.218145 -2.330150 -2.275851 1.270900 -2.406113 24.567775 -1.824148 -6.886112 -12.536055 0.412400 0.000000 -47.397000
